<svg xmlns="http://www.w3.org/2000/svg" xmlns:xlink="http://www.w3.org/1999/xlink" width="1000" zoomAndPan="magnify" viewBox="0 0 750 225" height="300" preserveAspectRatio="xMidYMid meet" version="1.0"><defs><g/></defs><g fill="#000000" fill-opacity="1"><g transform="translate(2.564681, 170.898783)"><g><path d="M 33.40625 -0.171875 L 2.625 -8.578125 L 8.046875 -28.859375 L 8.046875 -87.46875 L 22.5625 -87.46875 L 4.375 -92.359375 L 11.375 -117.90625 L 79.59375 -99.1875 L 73.828125 -78.203125 L 73.828125 -27.296875 L 79.59375 -25.71875 L 72.78125 -0.171875 L 41.984375 -8.578125 L 47.40625 -28.859375 L 47.40625 -57.03125 L 43.90625 -44.078125 L 34.46875 -46.703125 L 34.46875 -27.296875 L 40.234375 -25.71875 Z M 34.46875 -66.296875 L 47.40625 -62.796875 L 47.40625 -80.640625 L 34.46875 -84.140625 Z M 34.46875 -66.296875 "/></g></g></g><g fill="#000000" fill-opacity="1"><g transform="translate(84.785723, 170.898783)"><g><path d="M 69.796875 1.921875 L 3.671875 -4.375 L 5.953125 -28.859375 L 5.953125 -90.96875 L 12.765625 -116.515625 L 46.015625 -107.59375 L 39.1875 -82.046875 L 32.359375 -83.796875 L 32.359375 -31.140625 L 18.1875 -29.5625 L 72.25 -24.484375 Z M 69.796875 1.921875 "/></g></g></g><g fill="#000000" fill-opacity="1"><g transform="translate(159.65932, 170.898783)"><g><path d="M 36.390625 0 L 2.625 -8.921875 L 9.796875 -34.46875 L 23.796875 -30.78125 L 41.984375 -61.578125 L 24.3125 -91.671875 L 10.328125 -88 L 3.15625 -113.53125 L 36.734375 -122.453125 L 36.90625 -122.453125 L 57.375 -87.8125 L 77.671875 -122.453125 L 77.84375 -122.453125 L 111.4375 -113.53125 L 104.265625 -88 L 90.265625 -91.671875 L 72.59375 -61.578125 L 90.796875 -30.78125 L 104.78125 -34.46875 L 111.953125 -8.921875 L 78.203125 0 L 57.375 -35.515625 Z M 36.390625 0 "/></g></g></g><g fill="#000000" fill-opacity="1"><g transform="translate(274.243886, 170.898783)"><g><path d="M 36.90625 -0.171875 L 6.125 -8.578125 L 11.546875 -28.859375 L 11.546875 -82.21875 L 2.625 -84.671875 L 9.453125 -110.203125 L 37.96875 -102.34375 L 37.96875 -91.84375 L 43.03125 -110.203125 L 83.09375 -99.1875 L 77.328125 -78.203125 L 77.328125 -27.296875 L 83.09375 -25.71875 L 76.265625 -0.171875 L 48.8125 -7.703125 L 50.90625 -15.21875 L 50.90625 -80.640625 L 37.96875 -84.140625 L 37.96875 -27.296875 L 43.734375 -25.71875 Z M 36.90625 -0.171875 "/></g></g><g transform="translate(359.963631, 170.898783)"><g><path d="M 27.8125 0.53125 L 5.25 -5.765625 L 10.328125 -24.828125 L 33.0625 -18.53125 Z M 27.8125 0.53125 "/></g></g></g><g fill="#ffffff" fill-opacity="1"><g transform="translate(396.540247, 175.758178)"><g><path d="M 56.234375 0.359375 L 12.703125 -11.421875 L 25.9375 -36.28125 L 71.46875 -23.765625 L 47.171875 -52.796875 L 37.546875 -44.8125 L 2.71875 -86.71875 L 17.78125 -99.59375 L 23.03125 -103.953125 L 23.578125 -104.484375 L 43.171875 -121 L 86.71875 -109.203125 L 73.46875 -84.359375 L 30.65625 -96.140625 L 51.703125 -70.75 L 60.953125 -78.90625 L 87.796875 -47.171875 L 87.796875 -26.125 L 78.1875 -18.140625 Z M 56.234375 0.359375 "/></g></g></g><g fill="#ffffff" fill-opacity="1"><g transform="translate(487.055249, 175.758178)"><g><path d="M 37.375 0 L 5.4375 -8.703125 L 11.0625 -29.75 L 11.0625 -76.734375 L 2.71875 -77.453125 L 5.265625 -104.671875 L 11.0625 -104.125 L 11.0625 -115.015625 L 38.453125 -115.015625 L 38.453125 -101.59375 L 47.34375 -100.6875 L 44.8125 -73.46875 L 38.453125 -74.015625 L 38.453125 -31.5625 L 25.765625 -31.5625 L 44.4375 -26.484375 Z M 37.375 0 "/></g></g></g><g fill="#ffffff" fill-opacity="1"><g transform="translate(537.119647, 175.758178)"><g><path d="M 2.546875 -8.890625 L 4.53125 -16.328125 L 4.53125 -71.109375 L 12.875 -71.109375 L 19.40625 -95.59375 L 74.015625 -80.546875 L 69.84375 -65.125 L 69.84375 -15.59375 L 50.4375 -15.59375 L 45.53125 2.71875 Z M 31.921875 -29.390625 L 42.453125 -26.484375 L 42.453125 -60.765625 L 31.921875 -63.671875 Z M 31.921875 -29.390625 "/></g></g></g><g fill="#ffffff" fill-opacity="1"><g transform="translate(613.848735, 175.758178)"><g><path d="M 34.65625 0 L 2.71875 -8.703125 L 8.34375 -29.75 L 8.34375 -59.859375 L 2.71875 -61.3125 L 9.796875 -87.796875 L 36.46875 -80.546875 L 38.453125 -87.796875 L 60.234375 -81.8125 L 53.15625 -55.328125 L 35.734375 -60.046875 L 35.734375 -28.125 L 41.71875 -26.484375 Z M 34.65625 0 "/></g></g></g><g fill="#ffffff" fill-opacity="1"><g transform="translate(675.885076, 175.758178)"><g><path d="M 55.328125 5.078125 L 2.71875 -9.25 L 5.8125 -20.859375 L 5.8125 -71.109375 L 21.59375 -71.109375 L 18.328125 -73.828125 L 35.921875 -94.875 L 69.65625 -66.21875 L 52.0625 -45.359375 L 54.96875 -34.828125 L 34.109375 -29.03125 L 62.40625 -21.40625 Z M 33.203125 -61.140625 L 33.203125 -49.15625 L 43.90625 -52.0625 Z M 33.203125 -61.140625 "/></g></g></g></svg>